<svg viewBox="0 0 512 512" xmlns="http://www.w3.org/2000/svg"><path d="M437.032 74.982C390.688 28.641 326.642 0 256.07 0 185.358 0 121.304 28.641 74.967 74.982 28.765 121.339 0 185.407 0 255.997c0 70.737 28.765 134.663 74.967 181.02C121.304 483.363 185.358 512 256.07 512c70.571 0 134.618-28.637 180.962-74.983C483.23 390.66 512 326.734 512 255.997c0-70.59-28.77-134.658-74.968-181.015z" fill="#f2140a" class="fill-000000"/><path clip-rule="evenodd" d="M276.897 168.12c-5.665-.717-12.893-3.125-14.167 4.388-1.416 7.795 6.657 7.234 11.901 8.365 35.714 7.8 47.9 20.548 53.852 55.146.277 1.419.427 3.257.427 4.816.424 4.109 1.415 7.79 7.648 6.664 3.12-.429 4.253-2.125 4.395-4.533.426-2.131 0-4.968.285-6.947.141-33.321-28.911-63.511-64.341-67.899zm3.264 27.354c-3.685 0-7.372.424-8.787 4.397-2.128 5.67 2.269 7.225 6.657 7.932 14.599 2.131 22.253 10.638 23.811 24.809.141 1.984.853 3.545 1.7 4.827 1.277 1.403 2.834 1.979 4.818 1.838 1.274 0 2.266-.435 3.113-.854 2.416-1.843 2.837-5.245 2.555-8.79.283-16.009-18.14-34.588-33.867-34.159zm73.97 112.262c-7.225-5.675-15.164-10.774-22.531-16.02-15.161-10.209-29.049-11.047-40.244 5.528-6.377 9.36-15.309 9.784-24.517 5.669-25.65-11.197-45.348-28.631-56.966-54.288-1.704-3.968-2.834-7.79-2.979-11.334-.426-6.806 2.408-12.753 10.064-18.004 6.375-4.109 12.608-9.072 12.185-18.286-.565-12.046-30.329-52.162-42.226-56.56-4.823-1.702-9.641-1.414-14.6 0-27.634 9.208-38.97 31.332-28.06 57.549 6.235 14.748 12.897 28.495 20.832 41.39 33.87 56.701 83.749 98.095 148.089 125.166 4.392 1.843 9.353 2.696 12.043 3.262 17.999.282 38.968-16.868 45.064-33.6 5.953-16.296-6.514-22.53-16.154-30.472zM265.567 152.53c57.669 8.779 84.17 35.709 91.536 92.557v1.409c.43 5.245-.56 12.056 6.38 12.056 6.098.142 6.38-4.393 6.38-8.79-.282-1.555-.282-2.832-.282-4.104.706-53.732-47.049-103.618-102.315-105.325-4.394.707-12.898-2.837-13.603 6.377-.146 6.103 7.081 5.244 11.904 5.82z" fill="#FFF" fill-rule="evenodd" class="fill-ffffff"/></svg>