<svg version="1.0" xmlns="http://www.w3.org/2000/svg" viewBox="0 0 581 581"><path d="M95.602 281.97V56.73h405.931v450.48H95.602V281.97z" fill="#fff" class="fill-ffffff"/><path d="M44.178 577.794c-19.72-5.166-31.491-16.95-36.935-36.977-1.666-6.13-1.767-20.158-1.767-246 0-226.297.098-239.883 1.779-246.436 4.247-16.56 13.378-28.465 26.721-34.837 15.09-7.205-3.242-6.727 258-6.727 260.487 0 242.99-.443 257.535 6.507 12.464 5.954 21.213 17.318 26.173 33.993 1.688 5.673 1.8 18.884 2.055 242.964.3 263.182.67 247.653-6.255 262.316-6.301 13.344-18.317 22.376-34.262 25.755-5.744 1.218-42.315 1.424-246.246 1.392-232.55-.036-239.711-.093-246.798-1.95zM337.73 363.067c.201-105.751.511-133.25 1.503-133.25.687 0 31.171 29.925 67.743 66.5 36.572 36.575 66.834 66.5 67.248 66.5.414 0 .752-26.437.752-58.748V245.32l-89.748-89.752c-49.36-49.364-90.2-89.752-90.752-89.752-1.813 0-178.375 177.409-179.454 180.315-1.51 4.066-1.443 115.321.07 116.256.662.41 28.051-26.241 67.253-65.44 36.376-36.373 66.473-66.131 66.884-66.131.411 0 .747 58.98.747 131.065 0 88.9.335 131.692 1.041 133.011 1.01 1.886 2.327 1.937 43.75 1.684l42.71-.26.253-133.25z" fill="#f2140a" class="fill-000000"/></svg>