<svg viewBox="0 0 64 64" xmlns="http://www.w3.org/2000/svg"><style/><path d="M4 13.9h7.1c.9 0 1.6.6 1.9 1.4.9 2.6 2.9 8.3 5.2 12.2 3.1 5.1 5.1 7 6.4 6.8 1.3-.3.9-3.7.9-6.4s.3-7.3-1-9.4l-2-2.9a1 1 0 01.8-1.6h11.4c1.1 0 2 .9 2 2v14.5s.5 2.6 3.3-.1 5.8-7.7 8.3-12.8l1-2.4c.3-.7 1-1.2 1.8-1.2h7.4c1.4 0 2.4 1.4 1.9 2.7l-.8 2.1s-2.7 5.4-5.5 9.2c-2.8 3.9-3.4 4.8-3 5.8.4 1 7.6 7.7 9.4 10.9.5.9.9 1.7 1.3 2.4.7 1.3-.3 3-1.8 3h-8.4c-.7 0-1.4-.4-1.7-1l-.8-1.3s-5.1-6-8.2-7.9c-3.2-1.8-3.1.8-3.1.8V46c0 2.2-1.8 4-4 4h-2s-11 0-19.8-13.1C5.1 26.7 2.8 20.1 2 16.3c-.2-1.2.7-2.4 2-2.4z" fill="#5181b8" id="Layer_11"/></svg>